<svg xmlns="http://www.w3.org/2000/svg" viewBox="0 0 800 600" width="800" height="600" role="img" aria-label="Auraluxe Hair placeholder">
  <defs>
    <linearGradient id="bg" x1="0" y1="0" x2="0" y2="1">
      <stop offset="0" stop-color="#1d1410"/>
      <stop offset="1" stop-color="#0a0a0a"/>
    </linearGradient>
    <radialGradient id="glow" cx="0.5" cy="0.4" r="0.6">
      <stop offset="0" stop-color="#f97316" stop-opacity="0.28"/>
      <stop offset="1" stop-color="#f97316" stop-opacity="0"/>
    </radialGradient>
    <linearGradient id="gold" x1="0" y1="0" x2="1" y2="1">
      <stop offset="0" stop-color="#fb923c"/>
      <stop offset="1" stop-color="#ea580c"/>
    </linearGradient>
  </defs>
  <rect width="800" height="600" fill="url(#bg)"/>
  <rect width="800" height="600" fill="url(#glow)"/>
  <circle cx="600" cy="150" r="120" fill="none" stroke="#ea580c" stroke-opacity="0.35" stroke-width="28"/>
  <circle cx="600" cy="150" r="170" fill="none" stroke="#fb923c" stroke-opacity="0.15" stroke-width="2"/>
  <path d="M140 470 C180 300 320 250 420 330" fill="none" stroke="url(#gold)" stroke-width="5" stroke-linecap="round" stroke-opacity="0.9"/>
  <path d="M210 470 C240 360 330 320 400 360" fill="none" stroke="#fb923c" stroke-width="3" stroke-linecap="round" stroke-opacity="0.5"/>
  <g fill="#fb923c" opacity="0.9">
    <path d="M300 210 l8 18 18 8 -18 8 -8 18 -8 -18 -18 -8 18 -8z"/>
    <path d="M500 360 l6 13 13 6 -13 6 -6 13 -6 -13 -13 -6 13 -6z"/>
  </g>
  <text x="400" y="380" text-anchor="middle" font-family="Inter, Segoe UI, Arial, sans-serif" font-size="74" font-weight="700" fill="#f8fafc">Auraluxe</text>
  <text x="400" y="418" text-anchor="middle" font-family="Inter, Segoe UI, Arial, sans-serif" font-size="20" font-weight="500" letter-spacing="6" fill="#fb923c" opacity="0.85">H A I R</text>
</svg>